<?xml version="1.0" encoding="utf-8"?>
<!-- Generator: Adobe Illustrator 19.1.0, SVG Export Plug-In . SVG Version: 6.00 Build 0)  -->
<svg version="1.1" id="Layer_1" xmlns="http://www.w3.org/2000/svg" xmlns:xlink="http://www.w3.org/1999/xlink" x="0px" y="0px"
	 viewBox="0 0 1000 400" enable-background="new 0 0 1000 400" xml:space="preserve">
<g>
	<g>
		<g>
			<path fill="#58595B" d="M66,280.8H35v-5.9h68.7v5.9h-31v79.9H66V280.8z"/>
			<path fill="#58595B" d="M113.3,360.7v-85.9h6.5v85.9H113.3z"/>
			<path fill="#58595B" d="M210.6,284.3l-32.9,50.3h-2.2l-33.1-50.3v76.3h-6.6v-85.9c3.2,0,4.7,0,7.9,0l32.9,50.1l32.5-50.1h8.1
				v85.9h-6.5V284.3z"/>
			<path fill="#58595B" d="M315.9,317.8c-0.1,22.6-14.5,44.3-43.3,44.3c-28.8,0-43.3-21.8-43.3-44.5c0-23.1,14.4-44.2,43.3-44.2
				C301.6,273.4,316,294.6,315.9,317.8z M235.8,317.7c0.1,19.4,12.4,38.3,36.8,38.3c24.5,0,36.9-18.9,36.9-38.3
				c0-19.9-12.3-38.2-36.9-38.2C247.9,279.5,235.7,297.5,235.8,317.7z"/>
			<path fill="#58595B" d="M348,280.8h-31v-5.9h68.7v5.9h-31v79.9H348V280.8z"/>
			<path fill="#58595B" d="M456.6,360.7v-39h-54.7v39h-6.6v-85.9h6.6v40.9h54.7v-40.9h6.6v85.9H456.6z"/>
			<path fill="#58595B" d="M505.2,326.3l-33.5-51.4v-0.1h7.7l29.1,45.2l29.2-45.2h7.7v0.1l-33.6,51.4v34.4h-6.6V326.3z"/>
		</g>
		<g>
			<path fill="#58595B" d="M634.8,291.3c-6.3-10.1-16.3-11.5-26-11.7c-10.1,0-26,3.7-26,17.4c0,10.9,11.8,13.5,26.3,16.2
				c16.6,3.2,33.7,6.1,33.7,24.7c-0.1,19.4-19.6,24.1-34,24.1c-13.4,0-28.6-5.5-35.2-18.7l5.9-2.9c5.3,10.4,18.8,15.6,29.3,15.6
				c10.6,0,27.4-2.9,27.4-18.2c0.1-12.9-14.1-15.7-28.2-18.4c-15.7-3.1-31.8-6.3-31.8-22.1c-0.4-18.2,18.5-23.8,32.6-23.8
				c12.3,0,22.9,2,31.4,14.6L634.8,291.3z"/>
			<path fill="#58595B" d="M678.2,280.8h-31v-5.9h68.7v5.9h-31v79.9h-6.6V280.8z"/>
			<path fill="#58595B" d="M808.3,317.8c-0.1,22.6-14.5,44.3-43.3,44.3c-28.8,0-43.3-21.8-43.3-44.5c0-23.1,14.4-44.2,43.3-44.2
				C793.9,273.4,808.4,294.6,808.3,317.8z M728.1,317.7c0.1,19.4,12.4,38.3,36.8,38.3c24.5,0,36.9-18.9,36.9-38.3
				c0-19.9-12.3-38.2-36.9-38.2C740.3,279.5,728,297.5,728.1,317.7z"/>
			<path fill="#58595B" d="M823.9,274.8l57.8,71.1v-71.1h6.5v85.9h-2.6l-57.9-70.9v70.9H821v-85.9H823.9z"/>
			<path fill="#58595B" d="M910.8,314.4h50.3v6h-50.3v33.9H965v6.4h-60.7v-85.9h59.3v6.3h-52.8V314.4z"/>
		</g>
	</g>
	<g>
		<polygon fill="#D3AA72" points="500,69 461.2,107.7 477.2,107.7 494.3,90.6 494.3,171.1 500,176.7 505.7,171.1 505.7,90.6 
			522.8,107.7 538.8,107.7 		"/>
		<polygon fill="#D3AA72" points="484.8,128.4 484.8,117.2 429.6,117.2 500,46.7 561,107.7 577,107.7 500,30.7 407.9,122.8 
			413.5,128.4 		"/>
		<polygon fill="#D3AA72" points="515.2,117.2 515.2,128.5 570.4,128.5 500,198.9 439,137.9 422.9,137.9 500,215 592.1,122.8 
			586.5,117.2 		"/>
	</g>
</g>
</svg>
